# MagicaVoxel @ Ephtracy

# group
o 

# material
mtllib bridge.mtl
usemtl palette

# normals
vn -1 0 0
vn 1 0 0
vn 0 0 1
vn 0 0 -1
vn 0 -1 0
vn 0 1 0

# texcoords
vt 0.275391 0.5
vt 0.337891 0.5
vt 0.396484 0.5

# verts
v 0 2.6 -0.7
v 0 2.6 -1
v 0 2.6 -1.5
v 0 2.6 -1.8
v 0 2.7 -0.7
v 0 2.7 -1
v 0 2.7 -1.5
v 0 2.7 -1.8
v 0.3 2.7 -0.5
v 0.3 2.7 -0.6
v 0.3 2.7 -0.7
v 0.3 2.7 -1
v 0.3 2.7 -1.5
v 0.3 2.7 -1.8
v 0.3 2.7 -1.9
v 0.3 2.7 -2
v 0.3 2.8 -0.5
v 0.3 2.8 -0.6
v 0.3 2.8 -1.9
v 0.3 2.8 -2
v 1 2.7 -0.5
v 1 2.7 -0.6
v 1 2.7 -0.7
v 1 2.7 -1
v 1 2.7 -1.5
v 1 2.7 -1.8
v 1 2.7 -1.9
v 1 2.7 -2
v 1 2.8 -0.5
v 1 2.8 -0.6
v 1 2.8 -1.9
v 1 2.8 -2
v 1.7 2.7 -0.5
v 1.7 2.7 -0.6
v 1.7 2.7 -0.7
v 1.7 2.7 -1
v 1.7 2.7 -1.5
v 1.7 2.7 -1.8
v 1.7 2.7 -1.9
v 1.7 2.7 -2
v 1.7 2.8 -0.5
v 1.7 2.8 -0.6
v 1.7 2.8 -1.9
v 1.7 2.8 -2
v 0.8 2.7 -0.5
v 0.8 2.7 -0.6
v 0.8 2.7 -0.7
v 0.8 2.7 -1
v 0.8 2.7 -1.5
v 0.8 2.7 -1.8
v 0.8 2.7 -1.9
v 0.8 2.7 -2
v 0.8 2.8 -0.5
v 0.8 2.8 -0.6
v 0.8 2.8 -1.9
v 0.8 2.8 -2
v 1.5 2.7 -0.5
v 1.5 2.7 -0.6
v 1.5 2.7 -0.7
v 1.5 2.7 -1
v 1.5 2.7 -1.5
v 1.5 2.7 -1.8
v 1.5 2.7 -1.9
v 1.5 2.7 -2
v 1.5 2.8 -0.5
v 1.5 2.8 -0.6
v 1.5 2.8 -1.9
v 1.5 2.8 -2
v 2.2 2.7 -0.5
v 2.2 2.7 -0.6
v 2.2 2.7 -0.7
v 2.2 2.7 -1
v 2.2 2.7 -1.5
v 2.2 2.7 -1.8
v 2.2 2.7 -1.9
v 2.2 2.7 -2
v 2.2 2.8 -0.5
v 2.2 2.8 -0.6
v 2.2 2.8 -1.9
v 2.2 2.8 -2
v 2.5 2.6 -0.7
v 2.5 2.6 -1
v 2.5 2.6 -1.5
v 2.5 2.6 -1.8
v 2.5 2.7 -0.7
v 2.5 2.7 -1
v 2.5 2.7 -1.5
v 2.5 2.7 -1.8
v 0.3 2.7 -0.5
v 0.3 2.8 -0.5
v 0.8 2.7 -0.5
v 0.8 2.8 -0.5
v 1 2.7 -0.5
v 1 2.8 -0.5
v 1.5 2.7 -0.5
v 1.5 2.8 -0.5
v 1.7 2.7 -0.5
v 1.7 2.8 -0.5
v 2.2 2.7 -0.5
v 2.2 2.8 -0.5
v 0 2.6 -0.7
v 0 2.7 -0.7
v 0.3 2.7 -0.7
v 0.8 2.7 -0.7
v 1 2.7 -0.7
v 1.5 2.7 -0.7
v 1.7 2.7 -0.7
v 2.2 2.7 -0.7
v 2.5 2.6 -0.7
v 2.5 2.7 -0.7
v 0 2.6 -1.5
v 0 2.7 -1.5
v 0.3 2.7 -1.5
v 0.8 2.7 -1.5
v 1 2.7 -1.5
v 1.5 2.7 -1.5
v 1.7 2.7 -1.5
v 2.2 2.7 -1.5
v 2.5 2.6 -1.5
v 2.5 2.7 -1.5
v 0 2.6 -1
v 0 2.7 -1
v 0.3 2.7 -1
v 0.8 2.7 -1
v 1 2.7 -1
v 1.5 2.7 -1
v 1.7 2.7 -1
v 2.2 2.7 -1
v 2.5 2.6 -1
v 2.5 2.7 -1
v 0 2.6 -1.8
v 0 2.7 -1.8
v 0.3 2.7 -1.8
v 0.8 2.7 -1.8
v 1 2.7 -1.8
v 1.5 2.7 -1.8
v 1.7 2.7 -1.8
v 2.2 2.7 -1.8
v 2.5 2.6 -1.8
v 2.5 2.7 -1.8
v 0.3 2.7 -2
v 0.3 2.8 -2
v 0.8 2.7 -2
v 0.8 2.8 -2
v 1 2.7 -2
v 1 2.8 -2
v 1.5 2.7 -2
v 1.5 2.8 -2
v 1.7 2.7 -2
v 1.7 2.8 -2
v 2.2 2.7 -2
v 2.2 2.8 -2
v 0 2.6 -0.7
v 2.5 2.6 -0.7
v 0 2.6 -1
v 2.5 2.6 -1
v 0 2.6 -1.5
v 2.5 2.6 -1.5
v 0 2.6 -1.8
v 2.5 2.6 -1.8
v 0.3 2.7 -0.5
v 0.8 2.7 -0.5
v 1 2.7 -0.5
v 1.5 2.7 -0.5
v 1.7 2.7 -0.5
v 2.2 2.7 -0.5
v 0.3 2.7 -0.6
v 0.8 2.7 -0.6
v 1 2.7 -0.6
v 1.5 2.7 -0.6
v 1.7 2.7 -0.6
v 2.2 2.7 -0.6
v 0.3 2.7 -0.7
v 0.8 2.7 -0.7
v 1 2.7 -0.7
v 1.5 2.7 -0.7
v 1.7 2.7 -0.7
v 2.2 2.7 -0.7
v 0.3 2.7 -1
v 0.8 2.7 -1
v 1 2.7 -1
v 1.5 2.7 -1
v 1.7 2.7 -1
v 2.2 2.7 -1
v 0.3 2.7 -1.5
v 0.8 2.7 -1.5
v 1 2.7 -1.5
v 1.5 2.7 -1.5
v 1.7 2.7 -1.5
v 2.2 2.7 -1.5
v 0.3 2.7 -1.8
v 0.8 2.7 -1.8
v 1 2.7 -1.8
v 1.5 2.7 -1.8
v 1.7 2.7 -1.8
v 2.2 2.7 -1.8
v 0.3 2.7 -1.9
v 0.8 2.7 -1.9
v 1 2.7 -1.9
v 1.5 2.7 -1.9
v 1.7 2.7 -1.9
v 2.2 2.7 -1.9
v 0.3 2.7 -2
v 0.8 2.7 -2
v 1 2.7 -2
v 1.5 2.7 -2
v 1.7 2.7 -2
v 2.2 2.7 -2
v 0 2.7 -0.7
v 0.3 2.7 -0.7
v 0.8 2.7 -0.7
v 1 2.7 -0.7
v 1.5 2.7 -0.7
v 1.7 2.7 -0.7
v 2.2 2.7 -0.7
v 2.5 2.7 -0.7
v 0 2.7 -1
v 0.3 2.7 -1
v 0.8 2.7 -1
v 1 2.7 -1
v 1.5 2.7 -1
v 1.7 2.7 -1
v 2.2 2.7 -1
v 2.5 2.7 -1
v 0 2.7 -1.5
v 0.3 2.7 -1.5
v 0.8 2.7 -1.5
v 1 2.7 -1.5
v 1.5 2.7 -1.5
v 1.7 2.7 -1.5
v 2.2 2.7 -1.5
v 2.5 2.7 -1.5
v 0 2.7 -1.8
v 0.3 2.7 -1.8
v 0.8 2.7 -1.8
v 1 2.7 -1.8
v 1.5 2.7 -1.8
v 1.7 2.7 -1.8
v 2.2 2.7 -1.8
v 2.5 2.7 -1.8
v 0.3 2.8 -0.5
v 0.8 2.8 -0.5
v 1 2.8 -0.5
v 1.5 2.8 -0.5
v 1.7 2.8 -0.5
v 2.2 2.8 -0.5
v 0.3 2.8 -0.6
v 0.8 2.8 -0.6
v 1 2.8 -0.6
v 1.5 2.8 -0.6
v 1.7 2.8 -0.6
v 2.2 2.8 -0.6
v 0.3 2.8 -1.9
v 0.8 2.8 -1.9
v 1 2.8 -1.9
v 1.5 2.8 -1.9
v 1.7 2.8 -1.9
v 2.2 2.8 -1.9
v 0.3 2.8 -2
v 0.8 2.8 -2
v 1 2.8 -2
v 1.5 2.8 -2
v 1.7 2.8 -2
v 2.2 2.8 -2

# faces
f 5/3/1 2/3/1 1/3/1
f 6/3/1 2/3/1 5/3/1
f 7/3/1 4/3/1 3/3/1
f 8/3/1 4/3/1 7/3/1
f 17/1/1 10/1/1 9/1/1
f 18/2/1 11/2/1 10/2/1
f 18/1/1 10/1/1 17/1/1
f 18/2/1 12/2/1 11/2/1
f 18/2/1 15/2/1 14/2/1
f 18/2/1 14/2/1 13/2/1
f 18/2/1 13/2/1 12/2/1
f 19/1/1 16/1/1 15/1/1
f 19/2/1 15/2/1 18/2/1
f 20/1/1 16/1/1 19/1/1
f 29/1/1 22/1/1 21/1/1
f 30/2/1 23/2/1 22/2/1
f 30/1/1 22/1/1 29/1/1
f 30/2/1 24/2/1 23/2/1
f 30/2/1 27/2/1 26/2/1
f 30/2/1 26/2/1 25/2/1
f 30/2/1 25/2/1 24/2/1
f 31/1/1 28/1/1 27/1/1
f 31/2/1 27/2/1 30/2/1
f 32/1/1 28/1/1 31/1/1
f 41/1/1 34/1/1 33/1/1
f 42/2/1 35/2/1 34/2/1
f 42/1/1 34/1/1 41/1/1
f 42/2/1 36/2/1 35/2/1
f 42/2/1 39/2/1 38/2/1
f 42/2/1 38/2/1 37/2/1
f 42/2/1 37/2/1 36/2/1
f 43/1/1 40/1/1 39/1/1
f 43/2/1 39/2/1 42/2/1
f 44/1/1 40/1/1 43/1/1
f 45/1/2 46/1/2 53/1/2
f 46/2/2 47/2/2 54/2/2
f 53/1/2 46/1/2 54/1/2
f 47/2/2 48/2/2 54/2/2
f 50/2/2 51/2/2 54/2/2
f 49/2/2 50/2/2 54/2/2
f 48/2/2 49/2/2 54/2/2
f 51/1/2 52/1/2 55/1/2
f 54/2/2 51/2/2 55/2/2
f 55/1/2 52/1/2 56/1/2
f 57/1/2 58/1/2 65/1/2
f 58/2/2 59/2/2 66/2/2
f 65/1/2 58/1/2 66/1/2
f 59/2/2 60/2/2 66/2/2
f 62/2/2 63/2/2 66/2/2
f 61/2/2 62/2/2 66/2/2
f 60/2/2 61/2/2 66/2/2
f 63/1/2 64/1/2 67/1/2
f 66/2/2 63/2/2 67/2/2
f 67/1/2 64/1/2 68/1/2
f 69/1/2 70/1/2 77/1/2
f 70/2/2 71/2/2 78/2/2
f 77/1/2 70/1/2 78/1/2
f 71/2/2 72/2/2 78/2/2
f 74/2/2 75/2/2 78/2/2
f 73/2/2 74/2/2 78/2/2
f 72/2/2 73/2/2 78/2/2
f 75/1/2 76/1/2 79/1/2
f 78/2/2 75/2/2 79/2/2
f 79/1/2 76/1/2 80/1/2
f 81/3/2 82/3/2 85/3/2
f 85/3/2 82/3/2 86/3/2
f 83/3/2 84/3/2 87/3/2
f 87/3/2 84/3/2 88/3/2
f 91/1/3 90/1/3 89/1/3
f 92/1/3 90/1/3 91/1/3
f 95/1/3 94/1/3 93/1/3
f 96/1/3 94/1/3 95/1/3
f 99/1/3 98/1/3 97/1/3
f 100/1/3 98/1/3 99/1/3
f 103/3/3 102/3/3 101/3/3
f 104/3/3 103/3/3 101/3/3
f 105/3/3 104/3/3 101/3/3
f 106/3/3 105/3/3 101/3/3
f 107/3/3 106/3/3 101/3/3
f 108/3/3 107/3/3 101/3/3
f 109/3/3 108/3/3 101/3/3
f 110/3/3 108/3/3 109/3/3
f 113/3/3 112/3/3 111/3/3
f 114/3/3 113/3/3 111/3/3
f 115/3/3 114/3/3 111/3/3
f 116/3/3 115/3/3 111/3/3
f 117/3/3 116/3/3 111/3/3
f 118/3/3 117/3/3 111/3/3
f 119/3/3 118/3/3 111/3/3
f 120/3/3 118/3/3 119/3/3
f 121/3/4 122/3/4 123/3/4
f 121/3/4 123/3/4 124/3/4
f 121/3/4 124/3/4 125/3/4
f 121/3/4 125/3/4 126/3/4
f 121/3/4 126/3/4 127/3/4
f 121/3/4 127/3/4 128/3/4
f 121/3/4 128/3/4 129/3/4
f 129/3/4 128/3/4 130/3/4
f 131/3/4 132/3/4 133/3/4
f 131/3/4 133/3/4 134/3/4
f 131/3/4 134/3/4 135/3/4
f 131/3/4 135/3/4 136/3/4
f 131/3/4 136/3/4 137/3/4
f 131/3/4 137/3/4 138/3/4
f 131/3/4 138/3/4 139/3/4
f 139/3/4 138/3/4 140/3/4
f 141/1/4 142/1/4 143/1/4
f 143/1/4 142/1/4 144/1/4
f 145/1/4 146/1/4 147/1/4
f 147/1/4 146/1/4 148/1/4
f 149/1/4 150/1/4 151/1/4
f 151/1/4 150/1/4 152/1/4
f 155/3/5 154/3/5 153/3/5
f 156/3/5 154/3/5 155/3/5
f 159/3/5 158/3/5 157/3/5
f 160/3/5 158/3/5 159/3/5
f 167/1/5 162/1/5 161/1/5
f 168/1/5 162/1/5 167/1/5
f 169/1/5 164/1/5 163/1/5
f 170/1/5 164/1/5 169/1/5
f 171/1/5 166/1/5 165/1/5
f 172/1/5 166/1/5 171/1/5
f 173/2/5 168/2/5 167/2/5
f 174/2/5 168/2/5 173/2/5
f 175/2/5 170/2/5 169/2/5
f 176/2/5 170/2/5 175/2/5
f 177/2/5 172/2/5 171/2/5
f 178/2/5 172/2/5 177/2/5
f 185/2/5 180/2/5 179/2/5
f 186/2/5 180/2/5 185/2/5
f 187/2/5 182/2/5 181/2/5
f 188/2/5 182/2/5 187/2/5
f 189/2/5 184/2/5 183/2/5
f 190/2/5 184/2/5 189/2/5
f 197/2/5 192/2/5 191/2/5
f 198/2/5 192/2/5 197/2/5
f 199/2/5 194/2/5 193/2/5
f 200/2/5 194/2/5 199/2/5
f 201/2/5 196/2/5 195/2/5
f 202/2/5 196/2/5 201/2/5
f 203/1/5 198/1/5 197/1/5
f 204/1/5 198/1/5 203/1/5
f 205/1/5 200/1/5 199/1/5
f 206/1/5 200/1/5 205/1/5
f 207/1/5 202/1/5 201/1/5
f 208/1/5 202/1/5 207/1/5
f 209/3/6 210/3/6 217/3/6
f 217/3/6 210/3/6 218/3/6
f 211/3/6 212/3/6 219/3/6
f 219/3/6 212/3/6 220/3/6
f 213/3/6 214/3/6 221/3/6
f 221/3/6 214/3/6 222/3/6
f 215/3/6 216/3/6 223/3/6
f 223/3/6 216/3/6 224/3/6
f 225/3/6 226/3/6 233/3/6
f 233/3/6 226/3/6 234/3/6
f 227/3/6 228/3/6 235/3/6
f 235/3/6 228/3/6 236/3/6
f 229/3/6 230/3/6 237/3/6
f 237/3/6 230/3/6 238/3/6
f 231/3/6 232/3/6 239/3/6
f 239/3/6 232/3/6 240/3/6
f 241/1/6 242/1/6 247/1/6
f 247/1/6 242/1/6 248/1/6
f 243/1/6 244/1/6 249/1/6
f 249/1/6 244/1/6 250/1/6
f 245/1/6 246/1/6 251/1/6
f 251/1/6 246/1/6 252/1/6
f 247/2/6 248/2/6 253/2/6
f 253/2/6 248/2/6 254/2/6
f 249/2/6 250/2/6 255/2/6
f 255/2/6 250/2/6 256/2/6
f 251/2/6 252/2/6 257/2/6
f 257/2/6 252/2/6 258/2/6
f 253/1/6 254/1/6 259/1/6
f 259/1/6 254/1/6 260/1/6
f 255/1/6 256/1/6 261/1/6
f 261/1/6 256/1/6 262/1/6
f 257/1/6 258/1/6 263/1/6
f 263/1/6 258/1/6 264/1/6
