{
  "images": [
    {"uri": "data:image/png;base64,"},
    {"uri": "data:image/png;base64,"}
  ],
  "accessors": [
    {
      "componentType": 5126,
      "min": [
        -12.5,
        -1,
        -7.499999523162842
      ],
      "byteOffset": 0,
      "bufferView": 0,
      "max": [
        12.5,
        1,
        7.499999523162842
      ],
      "count": 252,
      "type": "VEC3"
    },
    {
      "componentType": 5126,
      "byteOffset": 0,
      "bufferView": 1,
      "count": 252,
      "type": "VEC3"
    },
    {
      "componentType": 5126,
      "byteOffset": 0,
      "bufferView": 2,
      "count": 252,
      "type": "VEC2"
    },
    {
      "componentType": 5126,
      "byteOffset": 0,
      "bufferView": 2,
      "count": 252,
      "type": "VEC2"
    }
  ],
  "textures": [
    {
      "source": 0,
      "sampler": 0
    },
    {
      "source": 1,
      "sampler": 0
    }
  ],
  "buffers": [
    {
      "byteLength": 3024,
      "uri": "data:application/octet-stream;base64,"
    },
    {
      "byteLength": 3024,
      "uri": "data:application/octet-stream;base64,"
    },
    {
      "byteLength": 2016,
      "uri": "data:application/octet-stream;base64,"
    }
  ],
  "bufferViews": [
    {
      "byteOffset": 0,
      "byteLength": 3024,
      "buffer": 0,
      "byteStride": 12,
      "target": 34962
    },
    {
      "byteOffset": 0,
      "byteLength": 3024,
      "buffer": 1,
      "byteStride": 12,
      "target": 34962
    },
    {
      "byteOffset": 0,
      "byteLength": 2016,
      "buffer": 2,
      "byteStride": 8,
      "target": 34962
    }
  ],
  "samplers": [{
    "minFilter": 9728,
    "wrapT": 33071,
    "wrapS": 33071,
    "magFilter": 9728
  }],
  "scene": 0,
  "nodes": [
    {
      "children": [
        1,
        2
      ],
      "rotation": [
        0,
        -1,
        0,
        -4.371138828673793E-8
      ],
      "translation": [
        0,
        0,
        0
      ],
      "name": "Root-Global",
      "scale": [
        -1,
        1,
        1
      ]
    },
    {
      "rotation": [
        0,
        0,
        0,
        1
      ],
      "translation": [
        0,
        0,
        0
      ],
      "name": "Root-Local",
      "scale": [
        1,
        1,
        1
      ]
    },
    {
      "children": [3],
      "rotation": [
        0,
        0,
        0,
        1
      ],
      "translation": [
        0,
        2.021158218383789,
        0
      ],
      "name": "bridge-Global",
      "scale": [
        1,
        1,
        1
      ]
    },
    {
      "rotation": [
        0,
        0,
        0,
        1
      ],
      "translation": [
        0.5000002384185791,
        1,
        0.4999999701976776
      ],
      "name": "bridge-Local",
      "scale": [
        1,
        1,
        1
      ],
      "mesh": 0
    }
  ],
  "materials": [{
    "name": "bridge-Material",
    "emissiveTexture": {
      "index": 1,
      "texCoord": 1
    },
    "pbrMetallicRoughness": {
      "baseColorTexture": {"index": 0},
      "metallicFactor": 0,
      "roughnessFactor": 1
    },
    "emissiveFactor": [
      1,
      1,
      1
    ]
  }],
  "animations": [],
  "scenes": [{"nodes": [0]}],
  "asset": {
    "generator": "VoxEdit Beta e2de1723",
    "version": "2.0"
  },
  "meshes": [{
    "primitives": [{
      "mode": 4,
      "material": 0,
      "attributes": {
        "POSITION": 0,
        "TEXCOORD_1": 3,
        "TEXCOORD_0": 2,
        "NORMAL": 1
      }
    }],
    "name": "bridge-Mesh"
  }]
}