{
  "images": [
    {"uri": "data:image/png;base64,"},
    {"uri": "data:image/png;base64,"},
    {"uri": "data:image/png;base64,"},
    {"uri": "data:image/png;base64,"},
    {"uri": "data:image/png;base64,"},
    {"uri": "data:image/png;base64,"}
  ],
  "accessors": [
    {
      "componentType": 5126,
      "min": [
        -23.5,
        -25,
        -23.5
      ],
      "byteOffset": 0,
      "bufferView": 0,
      "max": [
        23.5,
        25,
        23.5
      ],
      "count": 7722,
      "type": "VEC3"
    },
    {
      "componentType": 5126,
      "byteOffset": 0,
      "bufferView": 1,
      "count": 7722,
      "type": "VEC3"
    },
    {
      "componentType": 5126,
      "byteOffset": 0,
      "bufferView": 2,
      "count": 7722,
      "type": "VEC2"
    },
    {
      "componentType": 5126,
      "byteOffset": 0,
      "bufferView": 2,
      "count": 7722,
      "type": "VEC2"
    },
    {
      "componentType": 5126,
      "min": [
        -0.5,
        -3.5,
        -4
      ],
      "byteOffset": 0,
      "bufferView": 3,
      "max": [
        0.5,
        3.5,
        4
      ],
      "count": 180,
      "type": "VEC3"
    },
    {
      "componentType": 5126,
      "byteOffset": 0,
      "bufferView": 4,
      "count": 180,
      "type": "VEC3"
    },
    {
      "componentType": 5126,
      "byteOffset": 0,
      "bufferView": 5,
      "count": 180,
      "type": "VEC2"
    },
    {
      "componentType": 5126,
      "byteOffset": 0,
      "bufferView": 5,
      "count": 180,
      "type": "VEC2"
    },
    {
      "componentType": 5126,
      "min": [
        -2,
        -4.5,
        -2
      ],
      "byteOffset": 0,
      "bufferView": 6,
      "max": [
        2,
        4.5,
        2
      ],
      "count": 324,
      "type": "VEC3"
    },
    {
      "componentType": 5126,
      "byteOffset": 0,
      "bufferView": 7,
      "count": 324,
      "type": "VEC3"
    },
    {
      "componentType": 5126,
      "byteOffset": 0,
      "bufferView": 8,
      "count": 324,
      "type": "VEC2"
    },
    {
      "componentType": 5126,
      "byteOffset": 0,
      "bufferView": 8,
      "count": 324,
      "type": "VEC2"
    },
    {
      "componentType": 5126,
      "min": [0],
      "byteOffset": 0,
      "bufferView": 9,
      "max": [2],
      "count": 49,
      "type": "SCALAR"
    },
    {
      "componentType": 5126,
      "byteOffset": 0,
      "bufferView": 10,
      "count": 49,
      "type": "VEC3"
    },
    {
      "componentType": 5126,
      "byteOffset": 0,
      "bufferView": 11,
      "count": 49,
      "type": "VEC4"
    },
    {
      "componentType": 5126,
      "byteOffset": 0,
      "bufferView": 12,
      "count": 49,
      "type": "VEC3"
    },
    {
      "componentType": 5126,
      "byteOffset": 0,
      "bufferView": 13,
      "count": 49,
      "type": "VEC3"
    },
    {
      "componentType": 5126,
      "byteOffset": 0,
      "bufferView": 14,
      "count": 49,
      "type": "VEC4"
    },
    {
      "componentType": 5126,
      "byteOffset": 0,
      "bufferView": 15,
      "count": 49,
      "type": "VEC3"
    },
    {
      "componentType": 5126,
      "min": [0],
      "byteOffset": 0,
      "bufferView": 16,
      "max": [2],
      "count": 49,
      "type": "SCALAR"
    },
    {
      "componentType": 5126,
      "byteOffset": 0,
      "bufferView": 17,
      "count": 49,
      "type": "VEC3"
    },
    {
      "componentType": 5126,
      "byteOffset": 0,
      "bufferView": 18,
      "count": 49,
      "type": "VEC4"
    },
    {
      "componentType": 5126,
      "byteOffset": 0,
      "bufferView": 19,
      "count": 49,
      "type": "VEC3"
    },
    {
      "componentType": 5126,
      "byteOffset": 0,
      "bufferView": 20,
      "count": 49,
      "type": "VEC3"
    },
    {
      "componentType": 5126,
      "byteOffset": 0,
      "bufferView": 21,
      "count": 49,
      "type": "VEC4"
    },
    {
      "componentType": 5126,
      "byteOffset": 0,
      "bufferView": 22,
      "count": 49,
      "type": "VEC3"
    },
    {
      "componentType": 5126,
      "min": [0],
      "byteOffset": 0,
      "bufferView": 23,
      "max": [2],
      "count": 49,
      "type": "SCALAR"
    },
    {
      "componentType": 5126,
      "byteOffset": 0,
      "bufferView": 24,
      "count": 49,
      "type": "VEC3"
    },
    {
      "componentType": 5126,
      "byteOffset": 0,
      "bufferView": 25,
      "count": 49,
      "type": "VEC4"
    },
    {
      "componentType": 5126,
      "byteOffset": 0,
      "bufferView": 26,
      "count": 49,
      "type": "VEC3"
    },
    {
      "componentType": 5126,
      "byteOffset": 0,
      "bufferView": 27,
      "count": 49,
      "type": "VEC3"
    },
    {
      "componentType": 5126,
      "byteOffset": 0,
      "bufferView": 28,
      "count": 49,
      "type": "VEC4"
    },
    {
      "componentType": 5126,
      "byteOffset": 0,
      "bufferView": 29,
      "count": 49,
      "type": "VEC3"
    }
  ],
  "textures": [
    {
      "source": 0,
      "sampler": 0
    },
    {
      "source": 1,
      "sampler": 0
    },
    {
      "source": 2,
      "sampler": 0
    },
    {
      "source": 3,
      "sampler": 0
    },
    {
      "source": 4,
      "sampler": 0
    },
    {
      "source": 5,
      "sampler": 0
    }
  ],
  "buffers": [
    {
      "byteLength": 92664,
      "uri": "data:application/octet-stream;base64,"
    },
    {
      "byteLength": 92664,
      "uri": "data:application/octet-stream;base64,"
    },
    {
      "byteLength": 61776,
      "uri": "data:application/octet-stream;base64,"
    },
    {
      "byteLength": 2160,
      "uri": "data:application/octet-stream;base64,"
    },
    {
      "byteLength": 2160,
      "uri": "data:application/octet-stream;base64,"
    },
    {
      "byteLength": 1440,
      "uri": "data:application/octet-stream;base64,"
    },
    {
      "byteLength": 3888,
      "uri": "data:application/octet-stream;base64,"
    },
    {
      "byteLength": 3888,
      "uri": "data:application/octet-stream;base64,"
    },
    {
      "byteLength": 2592,
      "uri": "data:application/octet-stream;base64,"
    },
    {
      "byteLength": 196,
      "uri": "data:application/octet-stream;base64,"
    },
    {
      "byteLength": 588,
      "uri": "data:application/octet-stream;base64,"
    },
    {
      "byteLength": 784,
      "uri": "data:application/octet-stream;base64,"
    },
    {
      "byteLength": 588,
      "uri": "data:application/octet-stream;base64,"
    },
    {
      "byteLength": 588,
      "uri": "data:application/octet-stream;base64,"
    },
    {
      "byteLength": 784,
      "uri": "data:application/octet-stream;base64,"
    },
    {
      "byteLength": 588,
      "uri": "data:application/octet-stream;base64,"
    },
    {
      "byteLength": 196,
      "uri": "data:application/octet-stream;base64,"
    },
    {
      "byteLength": 588,
      "uri": "data:application/octet-stream;base64,"
    },
    {
      "byteLength": 784,
      "uri": "data:application/octet-stream;base64,"
    },
    {
      "byteLength": 588,
      "uri": "data:application/octet-stream;base64,"
    },
    {
      "byteLength": 588,
      "uri": "data:application/octet-stream;base64,"
    },
    {
      "byteLength": 784,
      "uri": "data:application/octet-stream;base64,"
    },
    {
      "byteLength": 588,
      "uri": "data:application/octet-stream;base64,"
    },
    {
      "byteLength": 196,
      "uri": "data:application/octet-stream;base64,"
    },
    {
      "byteLength": 588,
      "uri": "data:application/octet-stream;base64,"
    },
    {
      "byteLength": 784,
      "uri": "data:application/octet-stream;base64,"
    },
    {
      "byteLength": 588,
      "uri": "data:application/octet-stream;base64,"
    },
    {
      "byteLength": 588,
      "uri": "data:application/octet-stream;base64,"
    },
    {
      "byteLength": 784,
      "uri": "data:application/octet-stream;base64,"
    },
    {
      "byteLength": 588,
      "uri": "data:application/octet-stream;base64,"
    }
  ],
  "bufferViews": [
    {
      "byteOffset": 0,
      "byteLength": 92664,
      "buffer": 0,
      "byteStride": 12,
      "target": 34962
    },
    {
      "byteOffset": 0,
      "byteLength": 92664,
      "buffer": 1,
      "byteStride": 12,
      "target": 34962
    },
    {
      "byteOffset": 0,
      "byteLength": 61776,
      "buffer": 2,
      "byteStride": 8,
      "target": 34962
    },
    {
      "byteOffset": 0,
      "byteLength": 2160,
      "buffer": 3,
      "byteStride": 12,
      "target": 34962
    },
    {
      "byteOffset": 0,
      "byteLength": 2160,
      "buffer": 4,
      "byteStride": 12,
      "target": 34962
    },
    {
      "byteOffset": 0,
      "byteLength": 1440,
      "buffer": 5,
      "byteStride": 8,
      "target": 34962
    },
    {
      "byteOffset": 0,
      "byteLength": 3888,
      "buffer": 6,
      "byteStride": 12,
      "target": 34962
    },
    {
      "byteOffset": 0,
      "byteLength": 3888,
      "buffer": 7,
      "byteStride": 12,
      "target": 34962
    },
    {
      "byteOffset": 0,
      "byteLength": 2592,
      "buffer": 8,
      "byteStride": 8,
      "target": 34962
    },
    {
      "byteOffset": 0,
      "byteLength": 196,
      "buffer": 9,
      "byteStride": 4
    },
    {
      "byteOffset": 0,
      "byteLength": 588,
      "buffer": 10,
      "byteStride": 12
    },
    {
      "byteOffset": 0,
      "byteLength": 784,
      "buffer": 11,
      "byteStride": 16
    },
    {
      "byteOffset": 0,
      "byteLength": 588,
      "buffer": 12,
      "byteStride": 12
    },
    {
      "byteOffset": 0,
      "byteLength": 588,
      "buffer": 13,
      "byteStride": 12
    },
    {
      "byteOffset": 0,
      "byteLength": 784,
      "buffer": 14,
      "byteStride": 16
    },
    {
      "byteOffset": 0,
      "byteLength": 588,
      "buffer": 15,
      "byteStride": 12
    },
    {
      "byteOffset": 0,
      "byteLength": 196,
      "buffer": 16,
      "byteStride": 4
    },
    {
      "byteOffset": 0,
      "byteLength": 588,
      "buffer": 17,
      "byteStride": 12
    },
    {
      "byteOffset": 0,
      "byteLength": 784,
      "buffer": 18,
      "byteStride": 16
    },
    {
      "byteOffset": 0,
      "byteLength": 588,
      "buffer": 19,
      "byteStride": 12
    },
    {
      "byteOffset": 0,
      "byteLength": 588,
      "buffer": 20,
      "byteStride": 12
    },
    {
      "byteOffset": 0,
      "byteLength": 784,
      "buffer": 21,
      "byteStride": 16
    },
    {
      "byteOffset": 0,
      "byteLength": 588,
      "buffer": 22,
      "byteStride": 12
    },
    {
      "byteOffset": 0,
      "byteLength": 196,
      "buffer": 23,
      "byteStride": 4
    },
    {
      "byteOffset": 0,
      "byteLength": 588,
      "buffer": 24,
      "byteStride": 12
    },
    {
      "byteOffset": 0,
      "byteLength": 784,
      "buffer": 25,
      "byteStride": 16
    },
    {
      "byteOffset": 0,
      "byteLength": 588,
      "buffer": 26,
      "byteStride": 12
    },
    {
      "byteOffset": 0,
      "byteLength": 588,
      "buffer": 27,
      "byteStride": 12
    },
    {
      "byteOffset": 0,
      "byteLength": 784,
      "buffer": 28,
      "byteStride": 16
    },
    {
      "byteOffset": 0,
      "byteLength": 588,
      "buffer": 29,
      "byteStride": 12
    }
  ],
  "samplers": [{
    "minFilter": 9728,
    "wrapT": 33071,
    "wrapS": 33071,
    "magFilter": 9728
  }],
  "scene": 0,
  "nodes": [
    {
      "children": [
        1,
        2,
        4,
        6
      ],
      "rotation": [
        0,
        -1,
        0,
        -4.371138828673793E-8
      ],
      "translation": [
        0,
        0,
        0
      ],
      "name": "Root-Global",
      "scale": [
        -1,
        1,
        1
      ]
    },
    {
      "rotation": [
        0,
        0,
        0,
        1
      ],
      "translation": [
        0,
        0,
        0
      ],
      "name": "Root-Local",
      "scale": [
        1,
        1,
        1
      ]
    },
    {
      "children": [3],
      "rotation": [
        0,
        0,
        0,
        1
      ],
      "translation": [
        -11.981712341308594,
        0,
        10.9884033203125
      ],
      "name": "castle-Global",
      "scale": [
        1,
        1,
        1
      ]
    },
    {
      "rotation": [
        0,
        0,
        0,
        1
      ],
      "translation": [
        0.4999999403953552,
        25,
        0.4999999403953552
      ],
      "name": "castle-Local",
      "scale": [
        1,
        1,
        1
      ],
      "mesh": 0
    },
    {
      "children": [5],
      "rotation": [
        0,
        0,
        0,
        1
      ],
      "translation": [
        1.9591326713562012,
        42.95315170288086,
        -5.961248874664307
      ],
      "name": "flag-Global",
      "scale": [
        1,
        1,
        1
      ]
    },
    {
      "rotation": [
        0,
        0,
        0,
        1
      ],
      "translation": [
        0.5,
        3.5,
        0
      ],
      "name": "flag-Local",
      "scale": [
        1,
        1,
        1
      ],
      "mesh": 1
    },
    {
      "children": [7],
      "rotation": [
        0,
        0,
        0,
        1
      ],
      "translation": [
        -21.0231990814209,
        21.97739028930664,
        22.99405288696289
      ],
      "name": "light-Global",
      "scale": [
        1,
        1,
        1
      ]
    },
    {
      "rotation": [
        0,
        0,
        0,
        1
      ],
      "translation": [
        0,
        4.5,
        0
      ],
      "name": "light-Local",
      "scale": [
        1,
        1,
        1
      ],
      "mesh": 2
    }
  ],
  "materials": [
    {
      "name": "castle-Material",
      "emissiveTexture": {
        "index": 1,
        "texCoord": 1
      },
      "pbrMetallicRoughness": {
        "baseColorTexture": {"index": 0},
        "metallicFactor": 0,
        "roughnessFactor": 1
      },
      "emissiveFactor": [
        1,
        1,
        1
      ]
    },
    {
      "name": "flag-Material",
      "emissiveTexture": {
        "index": 3,
        "texCoord": 1
      },
      "pbrMetallicRoughness": {
        "baseColorTexture": {"index": 2},
        "metallicFactor": 0,
        "roughnessFactor": 1
      },
      "emissiveFactor": [
        1,
        1,
        1
      ]
    },
    {
      "name": "light-Material",
      "emissiveTexture": {
        "index": 5,
        "texCoord": 1
      },
      "pbrMetallicRoughness": {
        "baseColorTexture": {"index": 4},
        "metallicFactor": 0,
        "roughnessFactor": 1
      },
      "emissiveFactor": [
        1,
        1,
        1
      ]
    }
  ],
  "animations": [{
    "channels": [
      {
        "sampler": 0,
        "target": {
          "node": 0,
          "path": "translation"
        }
      },
      {
        "sampler": 1,
        "target": {
          "node": 0,
          "path": "rotation"
        }
      },
      {
        "sampler": 2,
        "target": {
          "node": 0,
          "path": "scale"
        }
      },
      {
        "sampler": 3,
        "target": {
          "node": 1,
          "path": "translation"
        }
      },
      {
        "sampler": 4,
        "target": {
          "node": 1,
          "path": "rotation"
        }
      },
      {
        "sampler": 5,
        "target": {
          "node": 1,
          "path": "scale"
        }
      },
      {
        "sampler": 6,
        "target": {
          "node": 4,
          "path": "translation"
        }
      },
      {
        "sampler": 7,
        "target": {
          "node": 4,
          "path": "rotation"
        }
      },
      {
        "sampler": 8,
        "target": {
          "node": 4,
          "path": "scale"
        }
      },
      {
        "sampler": 9,
        "target": {
          "node": 5,
          "path": "translation"
        }
      },
      {
        "sampler": 10,
        "target": {
          "node": 5,
          "path": "rotation"
        }
      },
      {
        "sampler": 11,
        "target": {
          "node": 5,
          "path": "scale"
        }
      },
      {
        "sampler": 12,
        "target": {
          "node": 6,
          "path": "translation"
        }
      },
      {
        "sampler": 13,
        "target": {
          "node": 6,
          "path": "rotation"
        }
      },
      {
        "sampler": 14,
        "target": {
          "node": 6,
          "path": "scale"
        }
      },
      {
        "sampler": 15,
        "target": {
          "node": 7,
          "path": "translation"
        }
      },
      {
        "sampler": 16,
        "target": {
          "node": 7,
          "path": "rotation"
        }
      },
      {
        "sampler": 17,
        "target": {
          "node": 7,
          "path": "scale"
        }
      }
    ],
    "name": "Idle",
    "samplers": [
      {
        "output": 13,
        "input": 12,
        "interpolation": "LINEAR"
      },
      {
        "output": 14,
        "input": 12,
        "interpolation": "LINEAR"
      },
      {
        "output": 15,
        "input": 12,
        "interpolation": "LINEAR"
      },
      {
        "output": 16,
        "input": 12,
        "interpolation": "LINEAR"
      },
      {
        "output": 17,
        "input": 12,
        "interpolation": "LINEAR"
      },
      {
        "output": 18,
        "input": 12,
        "interpolation": "LINEAR"
      },
      {
        "output": 20,
        "input": 19,
        "interpolation": "LINEAR"
      },
      {
        "output": 21,
        "input": 19,
        "interpolation": "LINEAR"
      },
      {
        "output": 22,
        "input": 19,
        "interpolation": "LINEAR"
      },
      {
        "output": 23,
        "input": 19,
        "interpolation": "LINEAR"
      },
      {
        "output": 24,
        "input": 19,
        "interpolation": "LINEAR"
      },
      {
        "output": 25,
        "input": 19,
        "interpolation": "LINEAR"
      },
      {
        "output": 27,
        "input": 26,
        "interpolation": "LINEAR"
      },
      {
        "output": 28,
        "input": 26,
        "interpolation": "LINEAR"
      },
      {
        "output": 29,
        "input": 26,
        "interpolation": "LINEAR"
      },
      {
        "output": 30,
        "input": 26,
        "interpolation": "LINEAR"
      },
      {
        "output": 31,
        "input": 26,
        "interpolation": "LINEAR"
      },
      {
        "output": 32,
        "input": 26,
        "interpolation": "LINEAR"
      }
    ]
  }],
  "scenes": [{"nodes": [0]}],
  "asset": {
    "generator": "VoxEdit Beta e2de1723",
    "version": "2.0"
  },
  "meshes": [
    {
      "primitives": [{
        "mode": 4,
        "material": 0,
        "attributes": {
          "POSITION": 0,
          "TEXCOORD_1": 3,
          "TEXCOORD_0": 2,
          "NORMAL": 1
        }
      }],
      "name": "castle-Mesh"
    },
    {
      "primitives": [{
        "mode": 4,
        "material": 1,
        "attributes": {
          "POSITION": 4,
          "TEXCOORD_1": 7,
          "TEXCOORD_0": 6,
          "NORMAL": 5
        }
      }],
      "name": "flag-Mesh"
    },
    {
      "primitives": [{
        "mode": 4,
        "material": 2,
        "attributes": {
          "POSITION": 8,
          "TEXCOORD_1": 11,
          "TEXCOORD_0": 10,
          "NORMAL": 9
        }
      }],
      "name": "light-Mesh"
    }
  ]
}