{
  "images": [
    {"uri": "data:image/png;base64,"},
    {"uri": "data:image/png;base64,"},
    {"uri": "data:image/png;base64,"},
    {"uri": "data:image/png;base64,"}
  ],
  "accessors": [
    {
      "componentType": 5126,
      "min": [
        -12.5,
        -10.5,
        -12.5
      ],
      "byteOffset": 0,
      "bufferView": 0,
      "max": [
        12.5,
        10.5,
        12.5
      ],
      "count": 654,
      "type": "VEC3"
    },
    {
      "componentType": 5126,
      "byteOffset": 0,
      "bufferView": 1,
      "count": 654,
      "type": "VEC3"
    },
    {
      "componentType": 5126,
      "byteOffset": 0,
      "bufferView": 2,
      "count": 654,
      "type": "VEC2"
    },
    {
      "componentType": 5126,
      "byteOffset": 0,
      "bufferView": 2,
      "count": 654,
      "type": "VEC2"
    },
    {
      "componentType": 5126,
      "min": [
        -4.5,
        -2,
        -7.499999523162842
      ],
      "byteOffset": 0,
      "bufferView": 3,
      "max": [
        4.5,
        2,
        7.499999523162842
      ],
      "count": 504,
      "type": "VEC3"
    },
    {
      "componentType": 5126,
      "byteOffset": 0,
      "bufferView": 4,
      "count": 504,
      "type": "VEC3"
    },
    {
      "componentType": 5126,
      "byteOffset": 0,
      "bufferView": 5,
      "count": 504,
      "type": "VEC2"
    },
    {
      "componentType": 5126,
      "byteOffset": 0,
      "bufferView": 5,
      "count": 504,
      "type": "VEC2"
    },
    {
      "componentType": 5126,
      "min": [0],
      "byteOffset": 0,
      "bufferView": 6,
      "max": [3],
      "count": 73,
      "type": "SCALAR"
    },
    {
      "componentType": 5126,
      "byteOffset": 0,
      "bufferView": 7,
      "count": 73,
      "type": "VEC3"
    },
    {
      "componentType": 5126,
      "byteOffset": 0,
      "bufferView": 8,
      "count": 73,
      "type": "VEC4"
    },
    {
      "componentType": 5126,
      "byteOffset": 0,
      "bufferView": 9,
      "count": 73,
      "type": "VEC3"
    },
    {
      "componentType": 5126,
      "byteOffset": 0,
      "bufferView": 10,
      "count": 73,
      "type": "VEC3"
    },
    {
      "componentType": 5126,
      "byteOffset": 0,
      "bufferView": 11,
      "count": 73,
      "type": "VEC4"
    },
    {
      "componentType": 5126,
      "byteOffset": 0,
      "bufferView": 12,
      "count": 73,
      "type": "VEC3"
    },
    {
      "componentType": 5126,
      "min": [0],
      "byteOffset": 0,
      "bufferView": 13,
      "max": [3],
      "count": 73,
      "type": "SCALAR"
    },
    {
      "componentType": 5126,
      "byteOffset": 0,
      "bufferView": 14,
      "count": 73,
      "type": "VEC3"
    },
    {
      "componentType": 5126,
      "byteOffset": 0,
      "bufferView": 15,
      "count": 73,
      "type": "VEC4"
    },
    {
      "componentType": 5126,
      "byteOffset": 0,
      "bufferView": 16,
      "count": 73,
      "type": "VEC3"
    },
    {
      "componentType": 5126,
      "byteOffset": 0,
      "bufferView": 17,
      "count": 73,
      "type": "VEC3"
    },
    {
      "componentType": 5126,
      "byteOffset": 0,
      "bufferView": 18,
      "count": 73,
      "type": "VEC4"
    },
    {
      "componentType": 5126,
      "byteOffset": 0,
      "bufferView": 19,
      "count": 73,
      "type": "VEC3"
    }
  ],
  "textures": [
    {
      "source": 0,
      "sampler": 0
    },
    {
      "source": 1,
      "sampler": 0
    },
    {
      "source": 2,
      "sampler": 0
    },
    {
      "source": 3,
      "sampler": 0
    }
  ],
  "buffers": [
    {
      "byteLength": 7848,
      "uri": "data:application/octet-stream;base64,"
    },
    {
      "byteLength": 7848,
      "uri": "data:application/octet-stream;base64,"
    },
    {
      "byteLength": 5232,
      "uri": "data:application/octet-stream;base64,"
    },
    {
      "byteLength": 6048,
      "uri": "data:application/octet-stream;base64,"
    },
    {
      "byteLength": 6048,
      "uri": "data:application/octet-stream;base64,"
    },
    {
      "byteLength": 4032,
      "uri": "data:application/octet-stream;base64,"
    },
    {
      "byteLength": 292,
      "uri": "data:application/octet-stream;base64,"
    },
    {
      "byteLength": 876,
      "uri": "data:application/octet-stream;base64,"
    },
    {
      "byteLength": 1168,
      "uri": "data:application/octet-stream;base64,"
    },
    {
      "byteLength": 876,
      "uri": "data:application/octet-stream;base64,"
    },
    {
      "byteLength": 876,
      "uri": "data:application/octet-stream;base64,"
    },
    {
      "byteLength": 1168,
      "uri": "data:application/octet-stream;base64,"
    },
    {
      "byteLength": 876,
      "uri": "data:application/octet-stream;base64,"
    },
    {
      "byteLength": 292,
      "uri": "data:application/octet-stream;base64,"
    },
    {
      "byteLength": 876,
      "uri": "data:application/octet-stream;base64,"
    },
    {
      "byteLength": 1168,
      "uri": "data:application/octet-stream;base64,"
    },
    {
      "byteLength": 876,
      "uri": "data:application/octet-stream;base64,"
    },
    {
      "byteLength": 876,
      "uri": "data:application/octet-stream;base64,"
    },
    {
      "byteLength": 1168,
      "uri": "data:application/octet-stream;base64,"
    },
    {
      "byteLength": 876,
      "uri": "data:application/octet-stream;base64,"
    }
  ],
  "bufferViews": [
    {
      "byteOffset": 0,
      "byteLength": 7848,
      "buffer": 0,
      "byteStride": 12,
      "target": 34962
    },
    {
      "byteOffset": 0,
      "byteLength": 7848,
      "buffer": 1,
      "byteStride": 12,
      "target": 34962
    },
    {
      "byteOffset": 0,
      "byteLength": 5232,
      "buffer": 2,
      "byteStride": 8,
      "target": 34962
    },
    {
      "byteOffset": 0,
      "byteLength": 6048,
      "buffer": 3,
      "byteStride": 12,
      "target": 34962
    },
    {
      "byteOffset": 0,
      "byteLength": 6048,
      "buffer": 4,
      "byteStride": 12,
      "target": 34962
    },
    {
      "byteOffset": 0,
      "byteLength": 4032,
      "buffer": 5,
      "byteStride": 8,
      "target": 34962
    },
    {
      "byteOffset": 0,
      "byteLength": 292,
      "buffer": 6,
      "byteStride": 4
    },
    {
      "byteOffset": 0,
      "byteLength": 876,
      "buffer": 7,
      "byteStride": 12
    },
    {
      "byteOffset": 0,
      "byteLength": 1168,
      "buffer": 8,
      "byteStride": 16
    },
    {
      "byteOffset": 0,
      "byteLength": 876,
      "buffer": 9,
      "byteStride": 12
    },
    {
      "byteOffset": 0,
      "byteLength": 876,
      "buffer": 10,
      "byteStride": 12
    },
    {
      "byteOffset": 0,
      "byteLength": 1168,
      "buffer": 11,
      "byteStride": 16
    },
    {
      "byteOffset": 0,
      "byteLength": 876,
      "buffer": 12,
      "byteStride": 12
    },
    {
      "byteOffset": 0,
      "byteLength": 292,
      "buffer": 13,
      "byteStride": 4
    },
    {
      "byteOffset": 0,
      "byteLength": 876,
      "buffer": 14,
      "byteStride": 12
    },
    {
      "byteOffset": 0,
      "byteLength": 1168,
      "buffer": 15,
      "byteStride": 16
    },
    {
      "byteOffset": 0,
      "byteLength": 876,
      "buffer": 16,
      "byteStride": 12
    },
    {
      "byteOffset": 0,
      "byteLength": 876,
      "buffer": 17,
      "byteStride": 12
    },
    {
      "byteOffset": 0,
      "byteLength": 1168,
      "buffer": 18,
      "byteStride": 16
    },
    {
      "byteOffset": 0,
      "byteLength": 876,
      "buffer": 19,
      "byteStride": 12
    }
  ],
  "samplers": [{
    "minFilter": 9728,
    "wrapT": 33071,
    "wrapS": 33071,
    "magFilter": 9728
  }],
  "scene": 0,
  "nodes": [
    {
      "children": [
        1,
        2,
        4
      ],
      "rotation": [
        0,
        -1,
        0,
        -4.371138828673793E-8
      ],
      "translation": [
        0,
        0,
        0
      ],
      "name": "Root-Global",
      "scale": [
        -1,
        1,
        1
      ]
    },
    {
      "rotation": [
        0,
        0,
        0,
        1
      ],
      "translation": [
        0,
        0,
        0
      ],
      "name": "Root-Local",
      "scale": [
        1,
        1,
        1
      ]
    },
    {
      "children": [3],
      "rotation": [
        0,
        0,
        0,
        1
      ],
      "translation": [
        0,
        -18.981603622436523,
        0
      ],
      "name": "water-Global",
      "scale": [
        1,
        1,
        1
      ]
    },
    {
      "rotation": [
        0,
        0,
        0,
        1
      ],
      "translation": [
        0.5000002384185791,
        10.5,
        0.5000002384185791
      ],
      "name": "water-Local",
      "scale": [
        1,
        1,
        1
      ],
      "mesh": 0
    },
    {
      "children": [5],
      "rotation": [
        0,
        0,
        0,
        1
      ],
      "translation": [
        0,
        1.957845687866211,
        0
      ],
      "name": "lily-Global",
      "scale": [
        1,
        1,
        1
      ]
    },
    {
      "rotation": [
        0,
        0,
        0,
        1
      ],
      "translation": [
        0.4999999701976776,
        2,
        0.4999999701976776
      ],
      "name": "lily-Local",
      "scale": [
        1,
        1,
        1
      ],
      "mesh": 1
    }
  ],
  "materials": [
    {
      "name": "water-Material",
      "emissiveTexture": {
        "index": 1,
        "texCoord": 1
      },
      "pbrMetallicRoughness": {
        "baseColorTexture": {"index": 0},
        "metallicFactor": 0,
        "roughnessFactor": 1
      },
      "emissiveFactor": [
        1,
        1,
        1
      ]
    },
    {
      "name": "lily-Material",
      "emissiveTexture": {
        "index": 3,
        "texCoord": 1
      },
      "pbrMetallicRoughness": {
        "baseColorTexture": {"index": 2},
        "metallicFactor": 0,
        "roughnessFactor": 1
      },
      "emissiveFactor": [
        1,
        1,
        1
      ]
    }
  ],
  "animations": [{
    "channels": [
      {
        "sampler": 0,
        "target": {
          "node": 0,
          "path": "translation"
        }
      },
      {
        "sampler": 1,
        "target": {
          "node": 0,
          "path": "rotation"
        }
      },
      {
        "sampler": 2,
        "target": {
          "node": 0,
          "path": "scale"
        }
      },
      {
        "sampler": 3,
        "target": {
          "node": 1,
          "path": "translation"
        }
      },
      {
        "sampler": 4,
        "target": {
          "node": 1,
          "path": "rotation"
        }
      },
      {
        "sampler": 5,
        "target": {
          "node": 1,
          "path": "scale"
        }
      },
      {
        "sampler": 6,
        "target": {
          "node": 4,
          "path": "translation"
        }
      },
      {
        "sampler": 7,
        "target": {
          "node": 4,
          "path": "rotation"
        }
      },
      {
        "sampler": 8,
        "target": {
          "node": 4,
          "path": "scale"
        }
      },
      {
        "sampler": 9,
        "target": {
          "node": 5,
          "path": "translation"
        }
      },
      {
        "sampler": 10,
        "target": {
          "node": 5,
          "path": "rotation"
        }
      },
      {
        "sampler": 11,
        "target": {
          "node": 5,
          "path": "scale"
        }
      }
    ],
    "name": "Idle",
    "samplers": [
      {
        "output": 9,
        "input": 8,
        "interpolation": "LINEAR"
      },
      {
        "output": 10,
        "input": 8,
        "interpolation": "LINEAR"
      },
      {
        "output": 11,
        "input": 8,
        "interpolation": "LINEAR"
      },
      {
        "output": 12,
        "input": 8,
        "interpolation": "LINEAR"
      },
      {
        "output": 13,
        "input": 8,
        "interpolation": "LINEAR"
      },
      {
        "output": 14,
        "input": 8,
        "interpolation": "LINEAR"
      },
      {
        "output": 16,
        "input": 15,
        "interpolation": "LINEAR"
      },
      {
        "output": 17,
        "input": 15,
        "interpolation": "LINEAR"
      },
      {
        "output": 18,
        "input": 15,
        "interpolation": "LINEAR"
      },
      {
        "output": 19,
        "input": 15,
        "interpolation": "LINEAR"
      },
      {
        "output": 20,
        "input": 15,
        "interpolation": "LINEAR"
      },
      {
        "output": 21,
        "input": 15,
        "interpolation": "LINEAR"
      }
    ]
  }],
  "scenes": [{"nodes": [0]}],
  "asset": {
    "generator": "VoxEdit Beta e2de1723",
    "version": "2.0"
  },
  "meshes": [
    {
      "primitives": [{
        "mode": 4,
        "material": 0,
        "attributes": {
          "POSITION": 0,
          "TEXCOORD_1": 3,
          "TEXCOORD_0": 2,
          "NORMAL": 1
        }
      }],
      "name": "water-Mesh"
    },
    {
      "primitives": [{
        "mode": 4,
        "material": 1,
        "attributes": {
          "POSITION": 4,
          "TEXCOORD_1": 7,
          "TEXCOORD_0": 6,
          "NORMAL": 5
        }
      }],
      "name": "lily-Mesh"
    }
  ]
}