# MagicaVoxel @ Ephtracy

# group
o 

# material
mtllib ninja.mtl
usemtl palette

# normals
vn -1 0 0
vn 1 0 0
vn 0 0 1
vn 0 0 -1
vn 0 -1 0
vn 0 1 0

# texcoords
vt 0.115234 0.5
vt 0.146484 0.5
vt 0.189453 0.5
vt 0.810547 0.5
vt 0.935547 0.5
vt 0.943359 0.5
vt 0.978516 0.5

# verts
v 0.4 2.3 -1.6
v 0.4 2.3 -1.7
v 0.4 2.4 -1.6
v 0.4 2.4 -1.7
v 0.8 3.3 -1
v 0.8 3.3 -1.2
v 0.8 3.6 -1
v 0.8 3.6 -1.2
v 0.9 3.3 -0.9
v 0.9 3.3 -1
v 0.9 3.3 -1.2
v 0.9 3.3 -1.3
v 0.9 3.4 -0.9
v 0.9 3.4 -1
v 0.9 3.4 -1.2
v 0.9 3.4 -1.3
v 0.9 3.6 -0.7
v 0.9 3.6 -1
v 0.9 3.6 -1.2
v 0.9 3.6 -1.5
v 0.9 3.7 -0.7
v 0.9 3.7 -1.5
v 0.9 3.9 -0.7
v 0.9 3.9 -1.5
v 1 2 -0.8
v 1 2 -1
v 1 2 -1.2
v 1 2 -1.4
v 1 2.1 -0.8
v 1 2.1 -1
v 1 2.1 -1.2
v 1 2.1 -1.4
v 1 2.5 -0.8
v 1 2.5 -1.4
v 1 2.8 -0.8
v 1 2.8 -1.4
v 1 3 -0.7
v 1 3 -1.5
v 1 3.1 -1
v 1 3.1 -1.2
v 1 3.2 -1
v 1 3.2 -1.2
v 1 3.3 -0.9
v 1 3.3 -1.3
v 1 3.4 -0.7
v 1 3.4 -0.9
v 1 3.4 -1
v 1 3.4 -1.2
v 1 3.4 -1.3
v 1 3.4 -1.5
v 1 3.5 -0.8
v 1 3.5 -0.9
v 1 3.5 -1
v 1 3.5 -1.2
v 1 3.5 -1.3
v 1 3.5 -1.4
v 1 3.6 -0.7
v 1 3.6 -0.8
v 1 3.6 -0.9
v 1 3.6 -1
v 1 3.6 -1.2
v 1 3.6 -1.3
v 1 3.6 -1.4
v 1 3.6 -1.5
v 1 3.9 -0.8
v 1 3.9 -1.4
v 1 4 -0.8
v 1 4 -1.4
v 1.1 2.1 -0.8
v 1.1 2.1 -1
v 1.1 2.1 -1.2
v 1.1 2.1 -1.4
v 1.1 2.3 -0.4
v 1.1 2.3 -0.5
v 1.1 2.3 -0.7
v 1.1 2.3 -0.8
v 1.1 2.3 -1
v 1.1 2.3 -1.2
v 1.1 2.3 -1.4
v 1.1 2.3 -1.5
v 1.1 2.3 -1.7
v 1.1 2.3 -1.8
v 1.1 2.4 -0.5
v 1.1 2.4 -0.6
v 1.1 2.4 -1.6
v 1.1 2.4 -1.7
v 1.1 2.5 -0.4
v 1.1 2.5 -0.6
v 1.1 2.5 -0.8
v 1.1 2.5 -1.4
v 1.1 2.5 -1.6
v 1.1 2.5 -1.8
v 1.1 2.8 -0.6
v 1.1 2.8 -0.7
v 1.1 2.8 -0.8
v 1.1 2.8 -1.4
v 1.1 2.8 -1.5
v 1.1 2.8 -1.6
v 1.1 2.9 -0.4
v 1.1 2.9 -0.6
v 1.1 2.9 -1.6
v 1.1 2.9 -1.8
v 1.1 3 -0.6
v 1.1 3 -0.7
v 1.1 3 -1.5
v 1.1 3 -1.6
v 1.1 3.1 -0.4
v 1.1 3.1 -0.6
v 1.1 3.1 -1.6
v 1.1 3.1 -1.8
v 1.1 3.3 -0.6
v 1.1 3.3 -0.7
v 1.1 3.3 -1.5
v 1.1 3.3 -1.6
v 1.1 3.4 -0.7
v 1.1 3.4 -1.5
v 1.1 3.6 -0.6
v 1.1 3.6 -0.7
v 1.1 3.6 -1.5
v 1.1 3.6 -1.6
v 1.2 2.3 -0.5
v 1.2 2.3 -0.6
v 1.2 2.4 -0.5
v 1.2 2.4 -0.6
v 1.4 3.5 -0.8
v 1.4 3.5 -0.9
v 1.4 3.5 -1.3
v 1.4 3.5 -1.4
v 1.4 3.6 -0.8
v 1.4 3.6 -0.9
v 1.4 3.6 -1.3
v 1.4 3.6 -1.4
v 1.1 3.5 -0.8
v 1.1 3.5 -0.9
v 1.1 3.5 -1.3
v 1.1 3.5 -1.4
v 1.1 3.6 -0.8
v 1.1 3.6 -0.9
v 1.1 3.6 -1.3
v 1.1 3.6 -1.4
v 1.3 2.3 -0.4
v 1.3 2.3 -0.6
v 1.3 2.3 -1.7
v 1.3 2.3 -1.8
v 1.3 2.4 -1.6
v 1.3 2.4 -1.7
v 1.3 2.5 -0.4
v 1.3 2.5 -0.6
v 1.3 2.5 -1.6
v 1.3 2.5 -1.8
v 1.3 2.7 -1.6
v 1.3 2.7 -1.8
v 1.3 2.8 -0.6
v 1.3 2.8 -0.7
v 1.3 2.9 -0.4
v 1.3 2.9 -0.6
v 1.3 2.9 -0.7
v 1.3 3.3 -0.6
v 1.3 3.3 -0.7
v 1.3 3.3 -1.5
v 1.3 3.3 -1.6
v 1.3 3.6 -0.6
v 1.3 3.6 -0.7
v 1.3 3.6 -1.5
v 1.3 3.6 -1.6
v 1.4 2 -0.8
v 1.4 2 -1
v 1.4 2 -1.2
v 1.4 2 -1.4
v 1.4 2.1 -0.8
v 1.4 2.1 -1
v 1.4 2.1 -1.2
v 1.4 2.1 -1.4
v 1.4 2.3 -0.7
v 1.4 2.3 -0.8
v 1.4 2.3 -1
v 1.4 2.3 -1.2
v 1.4 2.3 -1.4
v 1.4 2.3 -1.5
v 1.4 2.5 -0.8
v 1.4 2.5 -1.4
v 1.4 2.7 -1.6
v 1.4 2.7 -1.8
v 1.4 2.8 -0.8
v 1.4 2.8 -1.4
v 1.4 2.8 -1.5
v 1.4 2.8 -1.6
v 1.4 2.9 -0.4
v 1.4 2.9 -0.6
v 1.4 2.9 -0.7
v 1.4 2.9 -1.6
v 1.4 2.9 -1.8
v 1.4 3 -0.6
v 1.4 3 -0.7
v 1.4 3 -1.5
v 1.4 3 -1.6
v 1.4 3.1 -0.4
v 1.4 3.1 -0.6
v 1.4 3.1 -1.6
v 1.4 3.1 -1.8
v 1.4 3.9 -0.8
v 1.4 3.9 -1.4
v 1.4 4 -0.8
v 1.4 4 -1.4
v 1.5 2.5 -0.8
v 1.5 2.5 -1.4
v 1.5 2.8 -0.8
v 1.5 2.8 -1.4
v 1.5 3 -0.7
v 1.5 3 -1.5
v 1.5 3.9 -0.7
v 1.5 3.9 -1.5
v 2.1 2.3 -1.6
v 2.1 2.3 -1.7
v 2.1 2.4 -1.6
v 2.1 2.4 -1.7
v 1.1 2.3 -0.4
v 1.1 2.5 -0.4
v 1.1 2.9 -0.4
v 1.1 3.1 -0.4
v 1.3 2.3 -0.4
v 1.3 2.5 -0.4
v 1.3 2.9 -0.4
v 1.4 2.9 -0.4
v 1.4 3.1 -0.4
v 1.1 3.3 -0.6
v 1.1 3.6 -0.6
v 1.3 3.3 -0.6
v 1.3 3.6 -0.6
v 0.9 3.6 -0.7
v 0.9 3.7 -0.7
v 0.9 3.9 -0.7
v 1 3 -0.7
v 1 3.4 -0.7
v 1 3.6 -0.7
v 1 3.7 -0.7
v 1.1 2.3 -0.7
v 1.1 2.8 -0.7
v 1.1 3 -0.7
v 1.1 3.3 -0.7
v 1.1 3.4 -0.7
v 1.1 3.6 -0.7
v 1.3 2.8 -0.7
v 1.3 2.9 -0.7
v 1.3 3.3 -0.7
v 1.3 3.6 -0.7
v 1.4 2.3 -0.7
v 1.4 2.9 -0.7
v 1.4 3 -0.7
v 1.5 3 -0.7
v 1.5 3.9 -0.7
v 1 2 -0.8
v 1 2.1 -0.8
v 1 2.5 -0.8
v 1 2.8 -0.8
v 1 3.9 -0.8
v 1 4 -0.8
v 1.1 2.1 -0.8
v 1.1 2.3 -0.8
v 1.1 2.5 -0.8
v 1.1 2.8 -0.8
v 1.4 2 -0.8
v 1.4 2.1 -0.8
v 1.4 2.3 -0.8
v 1.4 2.5 -0.8
v 1.4 2.8 -0.8
v 1.4 3.9 -0.8
v 1.4 4 -0.8
v 1.5 2.5 -0.8
v 1.5 2.8 -0.8
v 0.9 3.3 -0.9
v 0.9 3.4 -0.9
v 1 3.3 -0.9
v 1 3.4 -0.9
v 1.1 3.5 -0.9
v 1.1 3.6 -0.9
v 1.4 3.5 -0.9
v 1.4 3.6 -0.9
v 0.8 3.3 -1
v 0.8 3.6 -1
v 0.9 3.3 -1
v 0.9 3.4 -1
v 0.9 3.5 -1
v 0.9 3.6 -1
v 1 3.4 -1
v 1 3.5 -1
v 1 3.6 -1
v 1 2 -1.2
v 1 2.1 -1.2
v 1.1 2.1 -1.2
v 1.1 2.3 -1.2
v 1.4 2 -1.2
v 1.4 2.1 -1.2
v 1.4 2.3 -1.2
v 1.1 3.5 -1.4
v 1.1 3.6 -1.4
v 1.4 3.5 -1.4
v 1.4 3.6 -1.4
v 0.4 2.3 -1.6
v 0.4 2.4 -1.6
v 1.1 2.4 -1.6
v 1.1 2.5 -1.6
v 1.1 2.8 -1.6
v 1.1 3 -1.6
v 1.1 3.1 -1.6
v 1.3 2.4 -1.6
v 1.3 2.5 -1.6
v 1.3 2.7 -1.6
v 1.4 2.7 -1.6
v 1.4 2.8 -1.6
v 1.4 3 -1.6
v 1.4 3.1 -1.6
v 2.1 2.3 -1.6
v 2.1 2.4 -1.6
v 1.1 2.3 -0.5
v 1.1 2.4 -0.5
v 1.2 2.3 -0.5
v 1.2 2.4 -0.5
v 1.1 2.4 -0.6
v 1.1 2.5 -0.6
v 1.1 2.8 -0.6
v 1.1 3 -0.6
v 1.1 3.1 -0.6
v 1.2 2.3 -0.6
v 1.2 2.4 -0.6
v 1.3 2.3 -0.6
v 1.3 2.5 -0.6
v 1.3 2.8 -0.6
v 1.4 3 -0.6
v 1.4 3.1 -0.6
v 1.1 3.5 -0.8
v 1.1 3.6 -0.8
v 1.4 3.5 -0.8
v 1.4 3.6 -0.8
v 1 2 -1
v 1 2.1 -1
v 1.1 2.1 -1
v 1.1 2.3 -1
v 1.4 2 -1
v 1.4 2.1 -1
v 1.4 2.3 -1
v 0.8 3.3 -1.2
v 0.8 3.6 -1.2
v 0.9 3.3 -1.2
v 0.9 3.4 -1.2
v 0.9 3.5 -1.2
v 0.9 3.6 -1.2
v 1 3.4 -1.2
v 1 3.5 -1.2
v 1 3.6 -1.2
v 0.9 3.3 -1.3
v 0.9 3.4 -1.3
v 1 3.3 -1.3
v 1 3.4 -1.3
v 1.1 3.5 -1.3
v 1.1 3.6 -1.3
v 1.4 3.5 -1.3
v 1.4 3.6 -1.3
v 1 2 -1.4
v 1 2.1 -1.4
v 1 2.5 -1.4
v 1 2.8 -1.4
v 1 3.9 -1.4
v 1 4 -1.4
v 1.1 2.1 -1.4
v 1.1 2.3 -1.4
v 1.1 2.5 -1.4
v 1.1 2.8 -1.4
v 1.4 2 -1.4
v 1.4 2.1 -1.4
v 1.4 2.3 -1.4
v 1.4 2.5 -1.4
v 1.4 2.8 -1.4
v 1.4 3.9 -1.4
v 1.4 4 -1.4
v 1.5 2.5 -1.4
v 1.5 2.8 -1.4
v 0.9 3.6 -1.5
v 0.9 3.7 -1.5
v 0.9 3.9 -1.5
v 1 3 -1.5
v 1 3.4 -1.5
v 1 3.6 -1.5
v 1 3.7 -1.5
v 1.1 2.3 -1.5
v 1.1 2.8 -1.5
v 1.1 3 -1.5
v 1.1 3.3 -1.5
v 1.1 3.4 -1.5
v 1.1 3.6 -1.5
v 1.3 3.3 -1.5
v 1.3 3.6 -1.5
v 1.4 2.3 -1.5
v 1.4 2.8 -1.5
v 1.4 3 -1.5
v 1.5 3 -1.5
v 1.5 3.9 -1.5
v 1.1 3.3 -1.6
v 1.1 3.6 -1.6
v 1.3 3.3 -1.6
v 1.3 3.6 -1.6
v 0.4 2.3 -1.7
v 0.4 2.4 -1.7
v 1.1 2.3 -1.7
v 1.1 2.4 -1.7
v 1.3 2.3 -1.7
v 1.3 2.4 -1.7
v 2.1 2.3 -1.7
v 2.1 2.4 -1.7
v 1.1 2.3 -1.8
v 1.1 2.5 -1.8
v 1.1 2.9 -1.8
v 1.1 3.1 -1.8
v 1.3 2.3 -1.8
v 1.3 2.5 -1.8
v 1.3 2.7 -1.8
v 1.4 2.7 -1.8
v 1.4 2.9 -1.8
v 1.4 3.1 -1.8
v 1 2 -0.8
v 1.4 2 -0.8
v 1 2 -1
v 1.4 2 -1
v 1 2 -1.2
v 1.4 2 -1.2
v 1 2 -1.4
v 1.4 2 -1.4
v 1.1 2.3 -0.4
v 1.3 2.3 -0.4
v 1.1 2.3 -0.5
v 1.2 2.3 -0.5
v 1.2 2.3 -0.6
v 1.3 2.3 -0.6
v 1.1 2.3 -0.7
v 1.4 2.3 -0.7
v 1.1 2.3 -0.8
v 1.4 2.3 -0.8
v 1.1 2.3 -1
v 1.4 2.3 -1
v 1.1 2.3 -1.2
v 1.4 2.3 -1.2
v 1.1 2.3 -1.4
v 1.4 2.3 -1.4
v 1.1 2.3 -1.5
v 1.4 2.3 -1.5
v 0.4 2.3 -1.6
v 2.1 2.3 -1.6
v 0.4 2.3 -1.7
v 1.1 2.3 -1.7
v 1.3 2.3 -1.7
v 2.1 2.3 -1.7
v 1.1 2.3 -1.8
v 1.3 2.3 -1.8
v 1.1 2.4 -0.5
v 1.2 2.4 -0.5
v 1.1 2.4 -0.6
v 1.2 2.4 -0.6
v 1 2.5 -0.8
v 1.1 2.5 -0.8
v 1.4 2.5 -0.8
v 1.5 2.5 -0.8
v 1 2.5 -1.4
v 1.1 2.5 -1.4
v 1.4 2.5 -1.4
v 1.5 2.5 -1.4
v 1.3 2.7 -1.6
v 1.4 2.7 -1.6
v 1.3 2.7 -1.8
v 1.4 2.7 -1.8
v 1.1 2.8 -0.6
v 1.3 2.8 -0.6
v 1.1 2.8 -0.7
v 1.3 2.8 -0.7
v 1.1 2.8 -1.5
v 1.4 2.8 -1.5
v 1.1 2.8 -1.6
v 1.4 2.8 -1.6
v 1.3 2.9 -0.4
v 1.4 2.9 -0.4
v 1.3 2.9 -0.6
v 1.4 2.9 -0.6
v 1.3 2.9 -0.7
v 1.4 2.9 -0.7
v 1 3 -0.7
v 1.1 3 -0.7
v 1.4 3 -0.7
v 1.5 3 -0.7
v 1 3 -1.5
v 1.1 3 -1.5
v 1.4 3 -1.5
v 1.5 3 -1.5
v 1.1 3.3 -0.6
v 1.3 3.3 -0.6
v 1.1 3.3 -0.7
v 1.3 3.3 -0.7
v 0.9 3.3 -0.9
v 1 3.3 -0.9
v 0.8 3.3 -1
v 0.9 3.3 -1
v 0.8 3.3 -1.2
v 0.9 3.3 -1.2
v 0.9 3.3 -1.3
v 1 3.3 -1.3
v 1.1 3.3 -1.5
v 1.3 3.3 -1.5
v 1.1 3.3 -1.6
v 1.3 3.3 -1.6
v 0.9 3.6 -0.7
v 1 3.6 -0.7
v 1 3.6 -0.8
v 1.1 3.6 -0.8
v 1.4 3.6 -0.8
v 1 3.6 -0.9
v 1.1 3.6 -0.9
v 1.4 3.6 -0.9
v 0.9 3.6 -1
v 1 3.6 -1
v 0.9 3.6 -1.2
v 1 3.6 -1.2
v 1 3.6 -1.3
v 1.1 3.6 -1.3
v 1.4 3.6 -1.3
v 1 3.6 -1.4
v 1.1 3.6 -1.4
v 1.4 3.6 -1.4
v 0.9 3.6 -1.5
v 1 3.6 -1.5
v 1 2.1 -0.8
v 1.1 2.1 -0.8
v 1 2.1 -1
v 1.1 2.1 -1
v 1 2.1 -1.2
v 1.1 2.1 -1.2
v 1 2.1 -1.4
v 1.1 2.1 -1.4
v 0.4 2.4 -1.6
v 1.1 2.4 -1.6
v 1.3 2.4 -1.6
v 2.1 2.4 -1.6
v 0.4 2.4 -1.7
v 1.1 2.4 -1.7
v 1.3 2.4 -1.7
v 2.1 2.4 -1.7
v 1 2.8 -0.8
v 1.1 2.8 -0.8
v 1.4 2.8 -0.8
v 1.5 2.8 -0.8
v 1 2.8 -1.4
v 1.1 2.8 -1.4
v 1.4 2.8 -1.4
v 1.5 2.8 -1.4
v 1.1 3 -0.6
v 1.4 3 -0.6
v 1.1 3 -0.7
v 1.4 3 -0.7
v 1.1 3 -1.5
v 1.4 3 -1.5
v 1.1 3 -1.6
v 1.4 3 -1.6
v 1.1 3.1 -0.4
v 1.4 3.1 -0.4
v 1.1 3.1 -0.6
v 1.4 3.1 -0.6
v 1.1 3.1 -1.6
v 1.4 3.1 -1.6
v 1.1 3.1 -1.8
v 1.4 3.1 -1.8
v 0.9 3.4 -0.9
v 1 3.4 -0.9
v 0.9 3.4 -1
v 1 3.4 -1
v 0.9 3.4 -1.2
v 1 3.4 -1.2
v 0.9 3.4 -1.3
v 1 3.4 -1.3
v 1.1 3.5 -0.8
v 1.4 3.5 -0.8
v 1.1 3.5 -0.9
v 1.4 3.5 -0.9
v 1.1 3.5 -1.3
v 1.4 3.5 -1.3
v 1.1 3.5 -1.4
v 1.4 3.5 -1.4
v 1.1 3.6 -0.6
v 1.3 3.6 -0.6
v 1.1 3.6 -0.7
v 1.3 3.6 -0.7
v 0.8 3.6 -1
v 0.9 3.6 -1
v 0.8 3.6 -1.2
v 0.9 3.6 -1.2
v 1.1 3.6 -1.5
v 1.3 3.6 -1.5
v 1.1 3.6 -1.6
v 1.3 3.6 -1.6
v 0.9 3.9 -0.7
v 1.5 3.9 -0.7
v 1 3.9 -0.8
v 1.4 3.9 -0.8
v 1 3.9 -1.4
v 1.4 3.9 -1.4
v 0.9 3.9 -1.5
v 1.5 3.9 -1.5
v 1 4 -0.8
v 1.4 4 -0.8
v 1 4 -1.4
v 1.4 4 -1.4

# faces
f 3/6/1 2/6/1 1/6/1
f 4/6/1 2/6/1 3/6/1
f 7/2/1 6/2/1 5/2/1
f 8/2/1 6/2/1 7/2/1
f 13/2/1 10/2/1 9/2/1
f 14/2/1 10/2/1 13/2/1
f 15/2/1 12/2/1 11/2/1
f 16/2/1 12/2/1 15/2/1
f 21/4/1 19/4/1 18/4/1
f 21/4/1 20/4/1 19/4/1
f 21/4/1 18/4/1 17/4/1
f 22/4/1 20/4/1 21/4/1
f 23/5/1 22/5/1 21/5/1
f 24/5/1 22/5/1 23/5/1
f 29/6/1 26/6/1 25/6/1
f 30/6/1 26/6/1 29/6/1
f 31/6/1 28/6/1 27/6/1
f 32/6/1 28/6/1 31/6/1
f 35/4/1 34/4/1 33/4/1
f 36/4/1 34/4/1 35/4/1
f 39/5/1 38/5/1 37/5/1
f 40/5/1 38/5/1 39/5/1
f 41/5/1 39/5/1 37/5/1
f 41/4/1 40/4/1 39/4/1
f 42/5/1 38/5/1 40/5/1
f 42/4/1 40/4/1 41/4/1
f 43/5/1 41/5/1 37/5/1
f 43/5/1 42/5/1 41/5/1
f 44/5/1 38/5/1 42/5/1
f 44/5/1 42/5/1 43/5/1
f 45/5/1 43/5/1 37/5/1
f 46/5/1 43/5/1 45/5/1
f 49/5/1 38/5/1 44/5/1
f 50/5/1 38/5/1 49/5/1
f 51/4/1 47/4/1 46/4/1
f 51/4/1 46/4/1 45/4/1
f 52/4/1 47/4/1 51/4/1
f 53/4/1 47/4/1 52/4/1
f 54/4/1 50/4/1 49/4/1
f 54/4/1 49/4/1 48/4/1
f 55/4/1 50/4/1 54/4/1
f 56/4/1 50/4/1 55/4/1
f 57/4/1 51/4/1 45/4/1
f 58/7/1 52/7/1 51/7/1
f 58/4/1 51/4/1 57/4/1
f 59/1/1 53/1/1 52/1/1
f 59/7/1 52/7/1 58/7/1
f 60/1/1 53/1/1 59/1/1
f 61/1/1 55/1/1 54/1/1
f 62/7/1 56/7/1 55/7/1
f 62/1/1 55/1/1 61/1/1
f 63/4/1 50/4/1 56/4/1
f 63/7/1 56/7/1 62/7/1
f 64/4/1 50/4/1 63/4/1
f 67/5/1 66/5/1 65/5/1
f 68/5/1 66/5/1 67/5/1
f 76/4/1 70/4/1 69/4/1
f 77/4/1 70/4/1 76/4/1
f 78/4/1 72/4/1 71/4/1
f 79/4/1 72/4/1 78/4/1
f 83/1/1 74/1/1 73/1/1
f 86/1/1 82/1/1 81/1/1
f 87/1/1 84/1/1 83/1/1
f 87/1/1 83/1/1 73/1/1
f 88/1/1 84/1/1 87/1/1
f 89/5/1 77/5/1 76/5/1
f 89/5/1 76/5/1 75/5/1
f 89/5/1 78/5/1 77/5/1
f 89/5/1 79/5/1 78/5/1
f 89/5/1 80/5/1 79/5/1
f 90/5/1 80/5/1 89/5/1
f 91/1/1 86/1/1 85/1/1
f 92/1/1 82/1/1 86/1/1
f 92/1/1 86/1/1 91/1/1
f 93/5/1 88/5/1 87/5/1
f 94/5/1 89/5/1 75/5/1
f 95/5/1 89/5/1 94/5/1
f 96/5/1 80/5/1 90/5/1
f 97/5/1 80/5/1 96/5/1
f 98/5/1 92/5/1 91/5/1
f 99/5/1 95/5/1 94/5/1
f 99/5/1 98/5/1 97/5/1
f 99/5/1 93/5/1 87/5/1
f 99/5/1 97/5/1 96/5/1
f 99/5/1 96/5/1 95/5/1
f 99/5/1 94/5/1 93/5/1
f 100/5/1 98/5/1 99/5/1
f 101/5/1 92/5/1 98/5/1
f 101/5/1 98/5/1 100/5/1
f 102/5/1 92/5/1 101/5/1
f 103/4/1 100/4/1 99/4/1
f 103/5/1 101/5/1 100/5/1
f 104/5/1 101/5/1 103/5/1
f 105/5/1 101/5/1 104/5/1
f 106/4/1 102/4/1 101/4/1
f 106/5/1 101/5/1 105/5/1
f 107/4/1 103/4/1 99/4/1
f 108/4/1 103/4/1 107/4/1
f 109/4/1 102/4/1 106/4/1
f 110/4/1 102/4/1 109/4/1
f 115/5/1 112/5/1 111/5/1
f 116/5/1 114/5/1 113/5/1
f 117/5/1 115/5/1 111/5/1
f 118/5/1 115/5/1 117/5/1
f 119/5/1 114/5/1 116/5/1
f 120/5/1 114/5/1 119/5/1
f 123/1/1 122/1/1 121/1/1
f 124/1/1 122/1/1 123/1/1
f 129/5/1 126/5/1 125/5/1
f 130/5/1 126/5/1 129/5/1
f 131/5/1 128/5/1 127/5/1
f 132/5/1 128/5/1 131/5/1
f 133/7/2 134/7/2 137/7/2
f 137/7/2 134/7/2 138/7/2
f 135/7/2 136/7/2 139/7/2
f 139/7/2 136/7/2 140/7/2
f 143/1/2 144/1/2 146/1/2
f 141/1/2 142/1/2 147/1/2
f 147/1/2 142/1/2 148/1/2
f 145/1/2 146/1/2 149/1/2
f 146/1/2 144/1/2 150/1/2
f 149/1/2 146/1/2 150/1/2
f 149/5/2 150/5/2 151/5/2
f 151/5/2 150/5/2 152/5/2
f 147/5/2 148/5/2 153/5/2
f 147/5/2 153/5/2 155/5/2
f 153/5/2 154/5/2 155/5/2
f 155/5/2 154/5/2 156/5/2
f 156/5/2 154/5/2 157/5/2
f 158/5/2 159/5/2 162/5/2
f 162/5/2 159/5/2 163/5/2
f 160/5/2 161/5/2 164/5/2
f 164/5/2 161/5/2 165/5/2
f 166/6/2 167/6/2 170/6/2
f 170/6/2 167/6/2 171/6/2
f 168/6/2 169/6/2 172/6/2
f 172/6/2 169/6/2 173/6/2
f 170/4/2 171/4/2 175/4/2
f 175/4/2 171/4/2 176/4/2
f 172/4/2 173/4/2 177/4/2
f 177/4/2 173/4/2 178/4/2
f 177/5/2 178/5/2 180/5/2
f 178/5/2 179/5/2 180/5/2
f 176/5/2 177/5/2 180/5/2
f 175/5/2 176/5/2 180/5/2
f 174/5/2 175/5/2 180/5/2
f 180/5/2 179/5/2 181/5/2
f 174/5/2 180/5/2 184/5/2
f 181/5/2 179/5/2 185/5/2
f 185/5/2 179/5/2 186/5/2
f 182/5/2 183/5/2 187/5/2
f 185/5/2 186/5/2 190/5/2
f 174/5/2 184/5/2 190/5/2
f 186/5/2 187/5/2 190/5/2
f 184/5/2 185/5/2 190/5/2
f 187/5/2 183/5/2 191/5/2
f 190/5/2 187/5/2 191/5/2
f 191/5/2 183/5/2 192/5/2
f 188/4/2 189/4/2 193/4/2
f 189/5/2 190/5/2 193/5/2
f 190/5/2 191/5/2 193/5/2
f 193/5/2 191/5/2 194/5/2
f 194/5/2 191/5/2 195/5/2
f 191/4/2 192/4/2 196/4/2
f 195/5/2 191/5/2 196/5/2
f 188/4/2 193/4/2 197/4/2
f 197/4/2 193/4/2 198/4/2
f 196/4/2 192/4/2 199/4/2
f 199/4/2 192/4/2 200/4/2
f 201/5/2 202/5/2 203/5/2
f 203/5/2 202/5/2 204/5/2
f 205/4/2 206/4/2 207/4/2
f 207/4/2 206/4/2 208/4/2
f 209/5/2 210/5/2 211/5/2
f 211/5/2 210/5/2 212/5/2
f 213/6/2 214/6/2 215/6/2
f 215/6/2 214/6/2 216/6/2
f 221/1/3 218/1/3 217/1/3
f 222/5/3 219/5/3 218/5/3
f 222/1/3 218/1/3 221/1/3
f 223/4/3 220/4/3 219/4/3
f 223/5/3 219/5/3 222/5/3
f 224/4/3 220/4/3 223/4/3
f 225/4/3 220/4/3 224/4/3
f 228/5/3 227/5/3 226/5/3
f 229/5/3 227/5/3 228/5/3
f 235/4/3 231/4/3 230/4/3
f 236/5/3 232/5/3 231/5/3
f 236/4/3 231/4/3 235/4/3
f 239/5/3 234/5/3 233/5/3
f 240/5/3 234/5/3 239/5/3
f 241/4/3 235/4/3 234/4/3
f 241/5/3 234/5/3 240/5/3
f 242/5/3 236/5/3 235/5/3
f 242/4/3 235/4/3 241/4/3
f 243/5/3 238/5/3 237/5/3
f 245/5/3 240/5/3 239/5/3
f 246/5/3 236/5/3 242/5/3
f 247/5/3 244/5/3 243/5/3
f 247/5/3 243/5/3 237/5/3
f 248/5/3 244/5/3 247/5/3
f 249/5/3 245/5/3 239/5/3
f 249/5/3 246/5/3 245/5/3
f 250/5/3 246/5/3 249/5/3
f 251/5/3 232/5/3 236/5/3
f 251/5/3 246/5/3 250/5/3
f 251/5/3 236/5/3 246/5/3
f 258/6/3 253/6/3 252/6/3
f 260/4/3 255/4/3 254/4/3
f 261/4/3 255/4/3 260/4/3
f 262/6/3 258/6/3 252/6/3
f 263/4/3 259/4/3 258/4/3
f 263/6/3 258/6/3 262/6/3
f 264/4/3 259/4/3 263/4/3
f 267/5/3 257/5/3 256/5/3
f 268/5/3 257/5/3 267/5/3
f 269/4/3 266/4/3 265/4/3
f 270/4/3 266/4/3 269/4/3
f 273/2/3 272/2/3 271/2/3
f 274/2/3 272/2/3 273/2/3
f 277/3/3 276/3/3 275/3/3
f 278/3/3 276/3/3 277/3/3
f 281/2/3 280/2/3 279/2/3
f 282/2/3 280/2/3 281/2/3
f 283/2/3 280/2/3 282/2/3
f 284/2/3 280/2/3 283/2/3
f 285/5/3 283/5/3 282/5/3
f 286/2/3 284/2/3 283/2/3
f 286/5/3 283/5/3 285/5/3
f 287/2/3 284/2/3 286/2/3
f 290/6/3 289/6/3 288/6/3
f 292/6/3 290/6/3 288/6/3
f 293/4/3 291/4/3 290/4/3
f 293/6/3 290/6/3 292/6/3
f 294/4/3 291/4/3 293/4/3
f 297/5/3 296/5/3 295/5/3
f 298/5/3 296/5/3 297/5/3
f 301/6/3 300/6/3 299/6/3
f 306/6/3 301/6/3 299/6/3
f 306/1/3 302/1/3 301/1/3
f 307/5/3 303/5/3 302/5/3
f 307/1/3 302/1/3 306/1/3
f 308/5/3 303/5/3 307/5/3
f 309/5/3 303/5/3 308/5/3
f 310/5/3 303/5/3 309/5/3
f 311/4/3 305/4/3 304/4/3
f 312/4/3 305/4/3 311/4/3
f 313/6/3 306/6/3 299/6/3
f 314/6/3 306/6/3 313/6/3
f 315/1/4 316/1/4 317/1/4
f 317/1/4 316/1/4 318/1/4
f 319/1/4 320/1/4 325/1/4
f 324/1/4 325/1/4 326/1/4
f 320/5/4 321/5/4 327/5/4
f 326/1/4 325/1/4 327/1/4
f 325/1/4 320/1/4 327/1/4
f 327/5/4 321/5/4 328/5/4
f 322/4/4 323/4/4 329/4/4
f 329/4/4 323/4/4 330/4/4
f 331/5/4 332/5/4 333/5/4
f 333/5/4 332/5/4 334/5/4
f 335/6/4 336/6/4 337/6/4
f 335/6/4 337/6/4 339/6/4
f 337/4/4 338/4/4 340/4/4
f 339/6/4 337/6/4 340/6/4
f 340/4/4 338/4/4 341/4/4
f 342/2/4 343/2/4 344/2/4
f 344/2/4 343/2/4 345/2/4
f 345/2/4 343/2/4 346/2/4
f 346/2/4 343/2/4 347/2/4
f 345/5/4 346/5/4 348/5/4
f 346/2/4 347/2/4 349/2/4
f 348/5/4 346/5/4 349/5/4
f 349/2/4 347/2/4 350/2/4
f 351/2/4 352/2/4 353/2/4
f 353/2/4 352/2/4 354/2/4
f 355/3/4 356/3/4 357/3/4
f 357/3/4 356/3/4 358/3/4
f 359/6/4 360/6/4 365/6/4
f 361/4/4 362/4/4 367/4/4
f 367/4/4 362/4/4 368/4/4
f 359/6/4 365/6/4 369/6/4
f 365/4/4 366/4/4 370/4/4
f 369/6/4 365/6/4 370/6/4
f 370/4/4 366/4/4 371/4/4
f 363/5/4 364/5/4 374/5/4
f 374/5/4 364/5/4 375/5/4
f 372/4/4 373/4/4 376/4/4
f 376/4/4 373/4/4 377/4/4
f 378/4/4 379/4/4 383/4/4
f 379/5/4 380/5/4 384/5/4
f 383/4/4 379/4/4 384/4/4
f 381/5/4 382/5/4 387/5/4
f 387/5/4 382/5/4 388/5/4
f 382/4/4 383/4/4 389/4/4
f 388/5/4 382/5/4 389/5/4
f 383/5/4 384/5/4 390/5/4
f 389/4/4 383/4/4 390/4/4
f 387/5/4 388/5/4 391/5/4
f 390/5/4 384/5/4 392/5/4
f 385/5/4 386/5/4 393/5/4
f 393/5/4 386/5/4 394/5/4
f 391/5/4 392/5/4 395/5/4
f 387/5/4 391/5/4 395/5/4
f 395/5/4 392/5/4 396/5/4
f 384/5/4 380/5/4 397/5/4
f 396/5/4 392/5/4 397/5/4
f 392/5/4 384/5/4 397/5/4
f 398/5/4 399/5/4 400/5/4
f 400/5/4 399/5/4 401/5/4
f 402/6/4 403/6/4 404/6/4
f 404/6/4 403/6/4 405/6/4
f 406/6/4 407/6/4 408/6/4
f 408/6/4 407/6/4 409/6/4
f 410/1/4 411/1/4 414/1/4
f 411/5/4 412/5/4 415/5/4
f 414/1/4 411/1/4 415/1/4
f 415/5/4 412/5/4 416/5/4
f 416/5/4 412/5/4 417/5/4
f 412/4/4 413/4/4 418/4/4
f 417/5/4 412/5/4 418/5/4
f 418/4/4 413/4/4 419/4/4
f 422/6/5 421/6/5 420/6/5
f 423/6/5 421/6/5 422/6/5
f 426/6/5 425/6/5 424/6/5
f 427/6/5 425/6/5 426/6/5
f 430/1/5 429/1/5 428/1/5
f 431/1/5 429/1/5 430/1/5
f 432/1/5 429/1/5 431/1/5
f 433/1/5 429/1/5 432/1/5
f 436/5/5 435/5/5 434/5/5
f 437/5/5 435/5/5 436/5/5
f 440/5/5 439/5/5 438/5/5
f 441/5/5 439/5/5 440/5/5
f 444/5/5 443/5/5 442/5/5
f 445/5/5 443/5/5 444/5/5
f 448/6/5 447/6/5 446/6/5
f 449/6/5 447/6/5 448/6/5
f 450/6/5 447/6/5 449/6/5
f 451/6/5 447/6/5 450/6/5
f 452/1/5 450/1/5 449/1/5
f 453/1/5 450/1/5 452/1/5
f 456/1/5 455/1/5 454/1/5
f 457/1/5 455/1/5 456/1/5
f 462/4/5 459/4/5 458/4/5
f 463/4/5 459/4/5 462/4/5
f 464/4/5 461/4/5 460/4/5
f 465/4/5 461/4/5 464/4/5
f 468/5/5 467/5/5 466/5/5
f 469/5/5 467/5/5 468/5/5
f 472/5/5 471/5/5 470/5/5
f 473/5/5 471/5/5 472/5/5
f 476/5/5 475/5/5 474/5/5
f 477/5/5 475/5/5 476/5/5
f 480/4/5 479/4/5 478/4/5
f 481/4/5 479/4/5 480/4/5
f 482/5/5 481/5/5 480/5/5
f 483/5/5 481/5/5 482/5/5
f 488/5/5 485/5/5 484/5/5
f 489/5/5 485/5/5 488/5/5
f 490/5/5 487/5/5 486/5/5
f 491/5/5 487/5/5 490/5/5
f 494/5/5 493/5/5 492/5/5
f 495/5/5 493/5/5 494/5/5
f 499/2/5 497/2/5 496/2/5
f 500/2/5 499/2/5 498/2/5
f 501/2/5 497/2/5 499/2/5
f 501/2/5 499/2/5 500/2/5
f 502/2/5 497/2/5 501/2/5
f 503/2/5 497/2/5 502/2/5
f 506/5/5 505/5/5 504/5/5
f 507/5/5 505/5/5 506/5/5
f 510/4/5 509/4/5 508/4/5
f 513/4/5 510/4/5 508/4/5
f 514/3/5 512/3/5 511/3/5
f 515/3/5 512/3/5 514/3/5
f 516/4/5 513/4/5 508/4/5
f 517/4/5 513/4/5 516/4/5
f 520/4/5 519/4/5 518/4/5
f 523/4/5 520/4/5 518/4/5
f 524/3/5 522/3/5 521/3/5
f 525/3/5 522/3/5 524/3/5
f 526/4/5 523/4/5 518/4/5
f 527/4/5 523/4/5 526/4/5
f 528/6/6 529/6/6 530/6/6
f 530/6/6 529/6/6 531/6/6
f 532/6/6 533/6/6 534/6/6
f 534/6/6 533/6/6 535/6/6
f 536/6/6 537/6/6 540/6/6
f 540/6/6 537/6/6 541/6/6
f 538/6/6 539/6/6 542/6/6
f 542/6/6 539/6/6 543/6/6
f 544/4/6 545/4/6 548/4/6
f 548/4/6 545/4/6 549/4/6
f 546/4/6 547/4/6 550/4/6
f 550/4/6 547/4/6 551/4/6
f 552/5/6 553/5/6 554/5/6
f 554/5/6 553/5/6 555/5/6
f 556/5/6 557/5/6 558/5/6
f 558/5/6 557/5/6 559/5/6
f 560/4/6 561/4/6 562/4/6
f 562/4/6 561/4/6 563/4/6
f 564/4/6 565/4/6 566/4/6
f 566/4/6 565/4/6 567/4/6
f 568/2/6 569/2/6 570/2/6
f 570/2/6 569/2/6 571/2/6
f 572/2/6 573/2/6 574/2/6
f 574/2/6 573/2/6 575/2/6
f 576/3/6 577/3/6 578/3/6
f 578/3/6 577/3/6 579/3/6
f 580/3/6 581/3/6 582/3/6
f 582/3/6 581/3/6 583/3/6
f 584/5/6 585/5/6 586/5/6
f 586/5/6 585/5/6 587/5/6
f 588/2/6 589/2/6 590/2/6
f 590/2/6 589/2/6 591/2/6
f 592/5/6 593/5/6 594/5/6
f 594/5/6 593/5/6 595/5/6
f 596/5/6 597/5/6 598/5/6
f 598/5/6 597/5/6 599/5/6
f 596/5/6 598/5/6 600/5/6
f 599/5/6 597/5/6 601/5/6
f 596/5/6 600/5/6 602/5/6
f 600/5/6 601/5/6 602/5/6
f 601/5/6 597/5/6 603/5/6
f 602/5/6 601/5/6 603/5/6
f 604/5/6 605/5/6 606/5/6
f 606/5/6 605/5/6 607/5/6
